<svg width="164" height="32" viewBox="0 0 164 32" fill="none" xmlns="http://www.w3.org/2000/svg">
<path d="M0 19.4145C0.495801 18.3956 0.991603 17.4317 1.54249 16.4679C0.908969 14.9258 0.413168 13.3561 0 11.7313V19.4145ZM3.00235 0C3.00235 0 0 0 0 3.71767V5.70043C0.275445 9.08764 0.991603 12.3922 2.17602 15.4765C3.85623 12.8328 5.86698 10.4095 8.31845 8.31656C13.1663 4.15828 19.6943 1.2943 28.5637 0.0275383L3.00235 0Z" fill="white"/>
<path d="M31.9241 2.01033C21.7877 2.97417 14.8465 5.86569 9.88848 10.1066C7.21667 12.3923 5.12328 15.0635 3.38798 18.0927C7.27175 25.6382 14.7088 31.2009 27.0763 31.9995H28.2882C28.2882 31.9995 32.0894 32.1372 32.0894 27.8963V1.98279L31.9241 2.01033ZM5.83944 23.5177C4.68257 22.1684 3.66342 20.6813 2.80954 19.1116C1.7353 21.177 0.798791 23.38 0 25.7208V31.972L20.2728 31.9995C13.9651 30.4849 9.22742 27.4832 5.83944 23.5177Z" fill="white"/>
<path d="M44.3472 14.2923C41.2346 14.2923 39.8574 11.7313 39.8574 8.56435C39.8574 5.42499 41.2346 2.83639 44.3472 2.83639C47.4597 2.83639 48.8369 5.45252 48.8369 8.56435C48.8094 11.7313 47.4322 14.2923 44.3472 14.2923ZM44.3472 3.74515C42.061 3.74515 41.2346 6.25114 41.2346 8.53681C41.2346 10.795 41.9784 13.3009 44.3472 13.3009C46.716 13.3009 47.4322 10.795 47.4322 8.53681C47.4322 6.25114 46.6334 3.74515 44.3472 3.74515ZM52.6656 6.19606V14.0995H51.4261V6.2236H50.1315V5.45252H51.4261V4.18576C51.4261 2.61608 52.3626 1.45947 54.1806 1.45947C54.3183 1.45947 54.4836 1.48701 54.4836 1.48701V2.28562H54.3458C53.4644 2.28562 52.6932 2.86393 52.6932 4.04807V5.45252H54.5111V6.2236L52.6656 6.19606ZM57.8715 6.19606V14.0995H56.632V6.2236H55.3374V5.45252H56.632V4.18576C56.632 2.61608 57.5685 1.45947 59.3865 1.45947C59.5242 1.45947 59.6895 1.48701 59.6895 1.48701V2.28562H59.5518C58.6703 2.28562 57.8991 2.86393 57.8991 4.04807V5.45252H59.717V6.2236L57.8715 6.19606ZM61.7278 3.77269C61.2871 3.77269 60.929 3.44223 60.929 3.00162C60.929 2.561 61.2871 2.20301 61.7278 2.20301C62.1685 2.20301 62.5266 2.561 62.5266 3.00162C62.5266 3.44223 62.196 3.77269 61.7278 3.77269ZM61.0942 5.42499H62.3613V14.0995H61.0942V5.42499ZM67.7876 14.2923C65.7493 14.2923 64.1517 12.5299 64.1517 9.7485C64.1517 6.91205 65.7493 5.20468 67.8427 5.20468C68.8893 5.20468 69.578 5.5076 69.9636 5.81052L69.633 6.58159C69.3576 6.36129 68.8343 6.11344 68.1181 6.11344C66.3552 6.11344 65.4463 7.62805 65.4463 9.69342C65.4463 11.8139 66.4654 13.3285 68.063 13.3285C68.7241 13.3285 69.2474 13.1082 69.6055 12.8603L69.936 13.6865C69.578 14.0169 68.8343 14.2923 67.7876 14.2923ZM72.0019 10.2717C72.1671 12.3096 73.2965 13.3285 75.0593 13.3285C76.1336 13.3285 76.9323 13.0531 77.4006 12.8052L77.7587 13.6865C77.2078 13.9894 76.1886 14.2648 74.9491 14.2648C72.5252 14.2648 70.7899 12.8052 70.7899 9.69342C70.7899 6.71929 72.3875 5.17714 74.5635 5.17714C76.7671 5.17714 78.1168 6.52652 78.1168 9.41804L72.0019 10.2717ZM74.5084 6.05837C73.1037 6.05837 71.9192 7.1599 71.9468 9.58327L76.8773 8.89481C76.8497 6.88452 75.8857 6.05837 74.5084 6.05837ZM86.1322 6.19606V14.0995H84.8927V6.2236H83.5981V5.45252H84.8927V4.18576C84.8927 2.61608 85.8292 1.45947 87.6472 1.45947C87.7849 1.45947 87.9501 1.48701 87.9501 1.48701V2.28562H87.8124C86.931 2.28562 86.1598 2.86393 86.1598 4.04807V5.45252H87.9777V6.2236L86.1322 6.19606ZM92.5225 14.2923C89.9609 14.2923 88.804 12.3096 88.804 9.7485C88.804 7.18744 89.9609 5.20468 92.5225 5.20468C95.0842 5.20468 96.241 7.18744 96.241 9.7485C96.241 12.3371 95.0842 14.2923 92.5225 14.2923ZM92.5225 6.08591C90.622 6.08591 90.0986 8.01359 90.0986 9.77604C90.0986 11.566 90.6771 13.3836 92.5225 13.3836C94.4231 13.3836 94.974 11.566 94.974 9.77604C94.974 7.98605 94.4231 6.08591 92.5225 6.08591ZM101.695 6.25114C100.896 6.03083 99.7392 6.08591 99.1883 6.41637V14.0995H97.9213V5.81052C98.8302 5.42499 99.7392 5.20468 101.364 5.20468H102.025C102.025 5.23222 101.695 6.25114 101.695 6.25114ZM47.1843 31.6139L42.2813 24.0409C41.9233 23.4626 41.6478 22.9118 41.6478 22.9118H41.6203C41.6203 22.9118 41.6754 23.5452 41.6754 24.2336V31.6139H40.0778V20.571H41.8957L46.5507 27.6759C46.9639 28.3093 47.2118 28.805 47.2118 28.805H47.2394C47.2394 28.805 47.1843 28.1716 47.1843 27.5107V20.5435H48.8094V31.5864L47.1843 31.6139ZM54.0704 31.8342C51.5363 31.8342 50.3243 30.8153 50.3243 29.163C50.3243 26.8222 52.7483 26.2164 55.668 25.941V25.4453C55.668 24.2612 54.8692 23.9032 53.6848 23.9032C52.8309 23.9032 51.8668 24.151 51.3435 24.3989L50.9028 23.3524C51.5088 23.1046 52.6381 22.719 54.0153 22.719C55.9434 22.719 57.4033 23.5176 57.4033 25.7207V31.2008C56.6596 31.5864 55.5027 31.8342 54.0704 31.8342ZM55.668 26.8222C53.5195 27.0425 52.0872 27.4556 52.0872 29.1079C52.0872 30.2645 52.9135 30.7878 54.2081 30.7878C54.8141 30.7878 55.3374 30.6501 55.668 30.4848V26.8222ZM62.4164 31.8067C60.5984 31.8067 59.9098 30.6225 59.9098 29.4659V24.0959H58.6979V22.9669H59.9098V21.0392L61.7553 20.516V22.9669H63.4355V24.0959H61.7553V29.3833C61.7553 30.0718 62.1409 30.595 62.9397 30.595C63.105 30.595 63.2703 30.5674 63.4355 30.5124V31.6414C63.2703 31.6965 62.9122 31.8067 62.4164 31.8067ZM65.8319 21.4523C65.2535 21.4523 64.7577 21.0117 64.7577 20.4884C64.7577 19.9652 65.2535 19.5246 65.8319 19.5246C66.4103 19.5246 66.9061 19.9652 66.9061 20.4884C66.9061 21.0392 66.4103 21.4523 65.8319 21.4523ZM64.8954 22.9669H66.7684V31.6139H64.8954V22.9669ZM72.3049 31.8342C69.6606 31.8342 68.3385 29.879 68.3385 27.2904C68.3385 24.7018 69.6606 22.719 72.3049 22.719C74.9491 22.719 76.2437 24.7018 76.2437 27.2904C76.2713 29.879 74.9491 31.8342 72.3049 31.8342ZM72.3049 23.9307C70.7073 23.9307 70.239 25.6106 70.239 27.2904C70.239 28.9702 70.7348 30.5674 72.3049 30.5674C73.9024 30.5674 74.3707 28.9702 74.3707 27.2904C74.3707 25.583 73.9024 23.9307 72.3049 23.9307ZM83.1299 31.6139V25.4178C83.1299 24.3163 82.1933 23.9032 81.1191 23.9032C80.5407 23.9032 79.9898 24.0133 79.6317 24.151V31.6139H77.7862V23.3524C78.585 22.9944 79.8796 22.719 81.2293 22.719C83.4879 22.719 85.0029 23.4901 85.0029 25.3902V31.6139H83.1299ZM90.2088 31.8342C87.6747 31.8342 86.4627 30.8153 86.4627 29.163C86.4627 26.8222 88.9142 26.2164 91.8064 25.941V25.4453C91.8064 24.2612 91.0076 23.9032 89.8232 23.9032C88.9693 23.9032 88.0052 24.151 87.4819 24.3989L87.0412 23.3524C87.6472 23.1046 88.7765 22.719 90.1537 22.719C92.0818 22.719 93.5417 23.5176 93.5417 25.7207V31.2008C92.798 31.5864 91.6411 31.8342 90.2088 31.8342ZM91.8064 26.8222C89.6579 27.0425 88.2256 27.4556 88.2256 29.1079C88.2256 30.2645 89.0519 30.7878 90.3465 30.7878C90.9525 30.7878 91.4758 30.6501 91.8064 30.4848V26.8222ZM95.4423 31.6139V19.0014H97.2877V31.6139H95.4423ZM106.074 31.8342C104.752 31.8342 103.678 31.5313 103.072 31.2008L103.595 29.8514C104.036 30.0993 104.862 30.3747 105.716 30.3747C107.011 30.3747 107.92 29.6311 107.92 28.5296C107.92 26.1062 103.32 27.0425 103.32 23.6003C103.32 21.8378 104.752 20.3232 106.983 20.3232C108.168 20.3232 109.132 20.6537 109.655 20.9566L109.187 22.1683C108.774 21.9204 108.03 21.645 107.259 21.645C106.074 21.645 105.276 22.361 105.276 23.4075C105.276 25.7758 109.986 24.7569 109.986 28.4195C109.958 30.3747 108.333 31.8342 106.074 31.8342ZM114.641 31.8067C112.823 31.8067 112.134 30.6225 112.134 29.4659V24.0959H110.922V22.9669H112.134V21.0392L113.98 20.516V22.9669H115.66V24.0959H113.98V29.3833C113.98 30.0718 114.393 30.595 115.164 30.595C115.329 30.595 115.495 30.5674 115.66 30.5124V31.6414C115.495 31.6965 115.109 31.8067 114.641 31.8067ZM120.398 31.8342C117.864 31.8342 116.652 30.8153 116.652 29.163C116.652 26.8222 119.103 26.2164 121.995 25.941V25.4453C121.995 24.2612 121.196 23.9032 120.012 23.9032C119.158 23.9032 118.194 24.151 117.671 24.3989L117.23 23.3524C117.836 23.1046 118.965 22.719 120.342 22.719C122.271 22.719 123.73 23.5176 123.73 25.7207V31.2008C123.014 31.5864 121.83 31.8342 120.398 31.8342ZM121.995 26.8222C119.847 27.0425 118.414 27.4556 118.414 29.1079C118.414 30.2645 119.241 30.7878 120.535 30.7878C121.141 30.7878 121.665 30.6501 121.995 30.4848V26.8222ZM128.771 31.8067C126.953 31.8067 126.265 30.6225 126.265 29.4659V24.0959H125.053V22.9669H126.265V21.0392L128.11 20.516V22.9669H129.79V24.0959H128.11V29.3833C128.11 30.0718 128.523 30.595 129.294 30.595C129.46 30.595 129.625 30.5674 129.79 30.5124V31.6414C129.597 31.6965 129.239 31.8067 128.771 31.8067ZM132.159 21.4523C131.581 21.4523 131.085 21.0117 131.085 20.4884C131.085 19.9652 131.581 19.5246 132.159 19.5246C132.738 19.5246 133.233 19.9652 133.233 20.4884C133.233 21.0392 132.765 21.4523 132.159 21.4523ZM131.223 22.9669H133.096V31.6139H131.223V22.9669ZM137.117 31.8342C136.043 31.8342 135.024 31.5313 134.5 31.2008L134.996 30.0167C135.354 30.2645 136.098 30.5399 136.897 30.5399C137.833 30.5399 138.605 29.9341 138.605 29.1905C138.605 27.1252 134.803 28.089 134.803 25.2801C134.803 23.9858 135.96 22.7466 137.833 22.7466C138.908 22.7466 139.679 23.022 140.257 23.38L139.761 24.4539C139.486 24.2612 138.908 23.9583 138.191 23.9583C137.227 23.9583 136.649 24.5366 136.649 25.1975C136.649 27.1252 140.505 26.2715 140.505 29.163C140.505 30.5124 139.21 31.8342 137.117 31.8342ZM145.215 31.8067C143.397 31.8067 142.709 30.6225 142.709 29.4659V24.0959H141.497V22.9669H142.709V21.0392L144.554 20.516V22.9669H146.234V24.0959H144.554V29.3833C144.554 30.0718 144.94 30.595 145.739 30.595C145.904 30.595 146.069 30.5674 146.234 30.5124V31.6414C146.069 31.6965 145.683 31.8067 145.215 31.8067ZM148.603 21.4523C148.025 21.4523 147.529 21.0117 147.529 20.4884C147.529 19.9652 148.025 19.5246 148.603 19.5246C149.182 19.5246 149.677 19.9652 149.677 20.4884C149.705 21.0392 149.209 21.4523 148.603 21.4523ZM147.694 22.9669H149.567V31.6139H147.694V22.9669ZM154.911 31.8342C152.79 31.8342 151.165 30.0993 151.165 27.2628C151.165 24.3989 152.845 22.719 154.938 22.719C156.013 22.719 156.756 23.022 157.142 23.3524L156.729 24.3989C156.453 24.2061 155.985 23.9858 155.379 23.9858C153.864 23.9858 153.093 25.2801 153.093 27.2353C153.093 29.2181 154.002 30.5124 155.352 30.5124C155.93 30.5124 156.398 30.2921 156.701 30.0718L157.17 31.2008C156.756 31.5313 156.013 31.8342 154.911 31.8342ZM160.585 31.8342C159.511 31.8342 158.492 31.5313 157.968 31.2008L158.464 30.0167C158.822 30.2645 159.566 30.5399 160.365 30.5399C161.301 30.5399 162.072 29.9341 162.072 29.1905C162.072 27.1252 158.271 28.089 158.271 25.2801C158.271 23.9858 159.428 22.7466 161.301 22.7466C162.375 22.7466 163.147 23.022 163.753 23.38L163.257 24.4539C162.981 24.2612 162.403 23.9583 161.687 23.9583C160.723 23.9583 160.144 24.5366 160.144 25.1975C160.144 27.1252 164.001 26.2715 164.001 29.163C163.973 30.5124 162.651 31.8342 160.585 31.8342Z" fill="white"/>
</svg>
