<svg width="554" height="209" viewBox="0 0 554 209" fill="none" xmlns="http://www.w3.org/2000/svg">
<path d="M1 109.063L5.60114 112.669L10.1989 122.592L14.8 98.2635L19.4011 102.964L23.9989 88.2323L28.6 109.924L33.2011 50.5045L37.7989 100.045L42.4 143.821L47.0011 162.058L51.5989 68.6622L56.2 132.486L60.8011 44.2105L65.3989 78.201L70 91.1439L74.6011 89.6953L79.1989 77.0784L83.8 70.0384L88.4011 29.9205L92.9989 94.8232L97.6 140.091L102.201 129.799L106.799 140.598L111.4 108.613L116.001 148.442L120.599 130.508L125.2 125.518L129.801 128.828L134.399 43.2907L139 114.133L143.601 34.0054L148.199 18.9766L152.8 43.6673L157.401 124.12L161.999 133.753L166.6 97.3075L171.201 143.205L175.799 132.631L180.4 69.0533L185.001 174.414L189.599 56.9434L194.2 76.3034L198.801 81.2574L203.399 63.1287L208 124.374L212.601 113.51L217.199 154.004L221.8 94.0627L226.401 145.74L230.999 95.2071L235.6 95.1274L240.201 143.422L244.799 126.612L249.4 37.3154L254.001 1L258.599 33.5491L263.2 98.0463L267.801 115.183L272.399 121.035L277 136.687L281.601 97.9304L286.199 125.576L290.8 117.109L295.401 109.526L299.999 150.687L304.6 92.9401L309.201 130.769L313.799 124.584L318.4 110.909L323.001 105.499L327.599 167.338L332.2 137.867L336.801 91.535L341.399 95.83L346 100.625L350.601 85.4003L355.199 108.135L359.8 100.422L364.401 84.7195L368.999 74.8765L373.6 131.168L378.201 94.9753L382.799 112.785L387.4 146.718L392.001 163.847L396.599 144.972L401.2 115.212L405.801 108.063L410.399 104.116L415 82.5612L419.601 86.9068L424.199 140.446L428.8 131.211L433.401 76.8321L437.999 149.231L442.6 137.324L447.201 86.2984L451.799 115.545L456.4 75.4849L461.001 74.3044L465.599 63.2156L470.2 78.0272L474.801 69.5676L479.399 93.6281L484 4.14337L488.601 126.807L493.199 166.78L497.8 168.953L502.401 94.9825L506.999 106.752L511.6 75.4922L516.201 130.161L520.799 29.0948L525.4 105.709L530.001 47.1149L534.599 59.9998L539.2 98.4229L543.801 121.498L548.399 177L553 79.7582" stroke="#383F43" stroke-width="2" stroke-miterlimit="2" stroke-linecap="round" stroke-linejoin="round"/>
<path d="M7.02148 203.248H10.5127V204H5.84961V203.18C6.29557 202.88 6.69759 202.604 7.05566 202.35C7.41374 202.096 7.72949 201.856 8.00293 201.632C8.27637 201.404 8.51074 201.188 8.70605 200.982C8.90462 200.777 9.06738 200.574 9.19434 200.372C9.32129 200.17 9.41406 199.967 9.47266 199.762C9.53125 199.557 9.56055 199.34 9.56055 199.112C9.56055 198.917 9.52637 198.731 9.45801 198.556C9.3929 198.38 9.29688 198.227 9.16992 198.097C9.04622 197.963 8.8916 197.857 8.70605 197.779C8.52376 197.701 8.31543 197.662 8.08105 197.662C7.89225 197.662 7.70996 197.69 7.53418 197.745C7.36165 197.797 7.20703 197.882 7.07031 197.999C6.93685 198.116 6.8278 198.268 6.74316 198.453C6.65853 198.635 6.61133 198.855 6.60156 199.112L5.79102 199.02C5.80404 198.694 5.86751 198.401 5.98145 198.141C6.09538 197.88 6.25163 197.659 6.4502 197.477C6.65202 197.294 6.89128 197.154 7.16797 197.057C7.44792 196.959 7.75879 196.91 8.10059 196.91C8.43262 196.91 8.74023 196.965 9.02344 197.076C9.3099 197.184 9.55729 197.335 9.76562 197.53C9.97721 197.726 10.1416 197.957 10.2588 198.224C10.3792 198.491 10.4395 198.782 10.4395 199.098C10.4395 199.472 10.3743 199.824 10.2441 200.152C10.1172 200.481 9.92188 200.805 9.6582 201.124C9.39453 201.44 9.05924 201.759 8.65234 202.081C8.2487 202.403 7.77181 202.743 7.22168 203.102L7.02148 203.229V203.248ZM14.2871 203.341C14.515 203.341 14.7266 203.281 14.9219 203.16C15.1204 203.04 15.2897 202.867 15.4297 202.643C15.5729 202.415 15.6852 202.136 15.7666 201.808C15.848 201.476 15.8887 201.1 15.8887 200.68V200.328C15.8887 199.908 15.848 199.534 15.7666 199.205C15.6852 198.876 15.5729 198.598 15.4297 198.37C15.2897 198.142 15.1204 197.97 14.9219 197.853C14.7266 197.732 14.515 197.672 14.2871 197.672C14.056 197.672 13.8428 197.732 13.6475 197.853C13.4521 197.97 13.2829 198.142 13.1396 198.37C12.9997 198.598 12.889 198.876 12.8076 199.205C12.7262 199.534 12.6855 199.908 12.6855 200.328V200.68C12.6855 201.1 12.7262 201.476 12.8076 201.808C12.889 202.136 12.9997 202.415 13.1396 202.643C13.2829 202.867 13.4521 203.04 13.6475 203.16C13.8428 203.281 14.056 203.341 14.2871 203.341ZM14.2871 196.91C14.5866 196.91 14.8568 196.957 15.0977 197.052C15.3385 197.146 15.5501 197.276 15.7324 197.442C15.918 197.605 16.0758 197.8 16.2061 198.028C16.3395 198.256 16.4486 198.504 16.5332 198.771C16.6178 199.034 16.6797 199.314 16.7188 199.61C16.7578 199.907 16.7773 200.206 16.7773 200.509C16.7773 200.812 16.7578 201.111 16.7188 201.407C16.6797 201.7 16.6178 201.98 16.5332 202.247C16.4486 202.511 16.3395 202.757 16.2061 202.984C16.0758 203.209 15.918 203.404 15.7324 203.57C15.5501 203.736 15.3385 203.867 15.0977 203.961C14.8568 204.052 14.5866 204.098 14.2871 204.098C13.9876 204.098 13.7174 204.052 13.4766 203.961C13.2357 203.867 13.0225 203.736 12.8369 203.57C12.6546 203.404 12.4967 203.209 12.3633 202.984C12.2331 202.757 12.1257 202.511 12.041 202.247C11.9564 201.98 11.8945 201.7 11.8555 201.407C11.8164 201.111 11.7969 200.812 11.7969 200.509C11.7969 200.206 11.8164 199.907 11.8555 199.61C11.8945 199.314 11.9564 199.034 12.041 198.771C12.1257 198.504 12.2331 198.256 12.3633 198.028C12.4967 197.8 12.6546 197.605 12.8369 197.442C13.0225 197.276 13.2357 197.146 13.4766 197.052C13.7174 196.957 13.9876 196.91 14.2871 196.91ZM18.0371 198.131C18.265 198.131 18.4505 198.113 18.5938 198.077C18.737 198.038 18.8477 197.978 18.9258 197.896C19.0039 197.815 19.056 197.711 19.082 197.584C19.1113 197.454 19.126 197.296 19.126 197.11V196.998H19.9561V204H19.0967V198.858H17.7344V198.131H18.0371ZM21.7285 198.131C21.9564 198.131 22.1419 198.113 22.2852 198.077C22.4284 198.038 22.5391 197.978 22.6172 197.896C22.6953 197.815 22.7474 197.711 22.7734 197.584C22.8027 197.454 22.8174 197.296 22.8174 197.11V196.998H23.6475V204H22.7881V198.858H21.4258V198.131H21.7285Z" fill="#6B7276"/>
<path d="M55.8887 203.248H59.3799V204H54.7168V203.18C55.1628 202.88 55.5648 202.604 55.9229 202.35C56.2809 202.096 56.5967 201.856 56.8701 201.632C57.1436 201.404 57.3779 201.188 57.5732 200.982C57.7718 200.777 57.9346 200.574 58.0615 200.372C58.1885 200.17 58.2812 199.967 58.3398 199.762C58.3984 199.557 58.4277 199.34 58.4277 199.112C58.4277 198.917 58.3936 198.731 58.3252 198.556C58.2601 198.38 58.1641 198.227 58.0371 198.097C57.9134 197.963 57.7588 197.857 57.5732 197.779C57.391 197.701 57.1826 197.662 56.9482 197.662C56.7594 197.662 56.5771 197.69 56.4014 197.745C56.2288 197.797 56.0742 197.882 55.9375 197.999C55.804 198.116 55.695 198.268 55.6104 198.453C55.5257 198.635 55.4785 198.855 55.4688 199.112L54.6582 199.02C54.6712 198.694 54.7347 198.401 54.8486 198.141C54.9626 197.88 55.1188 197.659 55.3174 197.477C55.5192 197.294 55.7585 197.154 56.0352 197.057C56.3151 196.959 56.626 196.91 56.9678 196.91C57.2998 196.91 57.6074 196.965 57.8906 197.076C58.1771 197.184 58.4245 197.335 58.6328 197.53C58.8444 197.726 59.0088 197.957 59.126 198.224C59.2464 198.491 59.3066 198.782 59.3066 199.098C59.3066 199.472 59.2415 199.824 59.1113 200.152C58.9844 200.481 58.7891 200.805 58.5254 201.124C58.2617 201.44 57.9264 201.759 57.5195 202.081C57.1159 202.403 56.639 202.743 56.0889 203.102L55.8887 203.229V203.248ZM63.1543 203.341C63.3822 203.341 63.5938 203.281 63.7891 203.16C63.9876 203.04 64.1569 202.867 64.2969 202.643C64.4401 202.415 64.5524 202.136 64.6338 201.808C64.7152 201.476 64.7559 201.1 64.7559 200.68V200.328C64.7559 199.908 64.7152 199.534 64.6338 199.205C64.5524 198.876 64.4401 198.598 64.2969 198.37C64.1569 198.142 63.9876 197.97 63.7891 197.853C63.5938 197.732 63.3822 197.672 63.1543 197.672C62.9232 197.672 62.71 197.732 62.5146 197.853C62.3193 197.97 62.1501 198.142 62.0068 198.37C61.8669 198.598 61.7562 198.876 61.6748 199.205C61.5934 199.534 61.5527 199.908 61.5527 200.328V200.68C61.5527 201.1 61.5934 201.476 61.6748 201.808C61.7562 202.136 61.8669 202.415 62.0068 202.643C62.1501 202.867 62.3193 203.04 62.5146 203.16C62.71 203.281 62.9232 203.341 63.1543 203.341ZM63.1543 196.91C63.4538 196.91 63.724 196.957 63.9648 197.052C64.2057 197.146 64.4173 197.276 64.5996 197.442C64.7852 197.605 64.943 197.8 65.0732 198.028C65.2067 198.256 65.3158 198.504 65.4004 198.771C65.485 199.034 65.5469 199.314 65.5859 199.61C65.625 199.907 65.6445 200.206 65.6445 200.509C65.6445 200.812 65.625 201.111 65.5859 201.407C65.5469 201.7 65.485 201.98 65.4004 202.247C65.3158 202.511 65.2067 202.757 65.0732 202.984C64.943 203.209 64.7852 203.404 64.5996 203.57C64.4173 203.736 64.2057 203.867 63.9648 203.961C63.724 204.052 63.4538 204.098 63.1543 204.098C62.8548 204.098 62.5846 204.052 62.3438 203.961C62.1029 203.867 61.8896 203.736 61.7041 203.57C61.5218 203.404 61.3639 203.209 61.2305 202.984C61.1003 202.757 60.9928 202.511 60.9082 202.247C60.8236 201.98 60.7617 201.7 60.7227 201.407C60.6836 201.111 60.6641 200.812 60.6641 200.509C60.6641 200.206 60.6836 199.907 60.7227 199.61C60.7617 199.314 60.8236 199.034 60.9082 198.771C60.9928 198.504 61.1003 198.256 61.2305 198.028C61.3639 197.8 61.5218 197.605 61.7041 197.442C61.8896 197.276 62.1029 197.146 62.3438 197.052C62.5846 196.957 62.8548 196.91 63.1543 196.91ZM66.9043 198.131C67.1322 198.131 67.3177 198.113 67.4609 198.077C67.6042 198.038 67.7148 197.978 67.793 197.896C67.8711 197.815 67.9232 197.711 67.9492 197.584C67.9785 197.454 67.9932 197.296 67.9932 197.11V196.998H68.8232V204H67.9639V198.858H66.6016V198.131H66.9043ZM71.8164 203.248H75.3076V204H70.6445V203.18C71.0905 202.88 71.4925 202.604 71.8506 202.35C72.2087 202.096 72.5244 201.856 72.7979 201.632C73.0713 201.404 73.3057 201.188 73.501 200.982C73.6995 200.777 73.8623 200.574 73.9893 200.372C74.1162 200.17 74.209 199.967 74.2676 199.762C74.3262 199.557 74.3555 199.34 74.3555 199.112C74.3555 198.917 74.3213 198.731 74.2529 198.556C74.1878 198.38 74.0918 198.227 73.9648 198.097C73.8411 197.963 73.6865 197.857 73.501 197.779C73.3187 197.701 73.1104 197.662 72.876 197.662C72.6872 197.662 72.5049 197.69 72.3291 197.745C72.1566 197.797 72.002 197.882 71.8652 197.999C71.7318 198.116 71.6227 198.268 71.5381 198.453C71.4535 198.635 71.4062 198.855 71.3965 199.112L70.5859 199.02C70.599 198.694 70.6624 198.401 70.7764 198.141C70.8903 197.88 71.0465 197.659 71.2451 197.477C71.4469 197.294 71.6862 197.154 71.9629 197.057C72.2428 196.959 72.5537 196.91 72.8955 196.91C73.2275 196.91 73.5352 196.965 73.8184 197.076C74.1048 197.184 74.3522 197.335 74.5605 197.53C74.7721 197.726 74.9365 197.957 75.0537 198.224C75.1742 198.491 75.2344 198.782 75.2344 199.098C75.2344 199.472 75.1693 199.824 75.0391 200.152C74.9121 200.481 74.7168 200.805 74.4531 201.124C74.1895 201.44 73.8542 201.759 73.4473 202.081C73.0436 202.403 72.5667 202.743 72.0166 203.102L71.8164 203.229V203.248Z" fill="#6B7276"/>
<path d="M107.869 203.248H111.36V204H106.697V203.18C107.143 202.88 107.545 202.604 107.903 202.35C108.261 202.096 108.577 201.856 108.851 201.632C109.124 201.404 109.358 201.188 109.554 200.982C109.752 200.777 109.915 200.574 110.042 200.372C110.169 200.17 110.262 199.967 110.32 199.762C110.379 199.557 110.408 199.34 110.408 199.112C110.408 198.917 110.374 198.731 110.306 198.556C110.241 198.38 110.145 198.227 110.018 198.097C109.894 197.963 109.739 197.857 109.554 197.779C109.371 197.701 109.163 197.662 108.929 197.662C108.74 197.662 108.558 197.69 108.382 197.745C108.209 197.797 108.055 197.882 107.918 197.999C107.785 198.116 107.675 198.268 107.591 198.453C107.506 198.635 107.459 198.855 107.449 199.112L106.639 199.02C106.652 198.694 106.715 198.401 106.829 198.141C106.943 197.88 107.099 197.659 107.298 197.477C107.5 197.294 107.739 197.154 108.016 197.057C108.296 196.959 108.606 196.91 108.948 196.91C109.28 196.91 109.588 196.965 109.871 197.076C110.158 197.184 110.405 197.335 110.613 197.53C110.825 197.726 110.989 197.957 111.106 198.224C111.227 198.491 111.287 198.782 111.287 199.098C111.287 199.472 111.222 199.824 111.092 200.152C110.965 200.481 110.77 200.805 110.506 201.124C110.242 201.44 109.907 201.759 109.5 202.081C109.096 202.403 108.619 202.743 108.069 203.102L107.869 203.229V203.248ZM115.135 203.341C115.363 203.341 115.574 203.281 115.77 203.16C115.968 203.04 116.137 202.867 116.277 202.643C116.421 202.415 116.533 202.136 116.614 201.808C116.696 201.476 116.736 201.1 116.736 200.68V200.328C116.736 199.908 116.696 199.534 116.614 199.205C116.533 198.876 116.421 198.598 116.277 198.37C116.137 198.142 115.968 197.97 115.77 197.853C115.574 197.732 115.363 197.672 115.135 197.672C114.904 197.672 114.69 197.732 114.495 197.853C114.3 197.97 114.131 198.142 113.987 198.37C113.847 198.598 113.737 198.876 113.655 199.205C113.574 199.534 113.533 199.908 113.533 200.328V200.68C113.533 201.1 113.574 201.476 113.655 201.808C113.737 202.136 113.847 202.415 113.987 202.643C114.131 202.867 114.3 203.04 114.495 203.16C114.69 203.281 114.904 203.341 115.135 203.341ZM115.135 196.91C115.434 196.91 115.704 196.957 115.945 197.052C116.186 197.146 116.398 197.276 116.58 197.442C116.766 197.605 116.924 197.8 117.054 198.028C117.187 198.256 117.296 198.504 117.381 198.771C117.465 199.034 117.527 199.314 117.566 199.61C117.605 199.907 117.625 200.206 117.625 200.509C117.625 200.812 117.605 201.111 117.566 201.407C117.527 201.7 117.465 201.98 117.381 202.247C117.296 202.511 117.187 202.757 117.054 202.984C116.924 203.209 116.766 203.404 116.58 203.57C116.398 203.736 116.186 203.867 115.945 203.961C115.704 204.052 115.434 204.098 115.135 204.098C114.835 204.098 114.565 204.052 114.324 203.961C114.083 203.867 113.87 203.736 113.685 203.57C113.502 203.404 113.344 203.209 113.211 202.984C113.081 202.757 112.973 202.511 112.889 202.247C112.804 201.98 112.742 201.7 112.703 201.407C112.664 201.111 112.645 200.812 112.645 200.509C112.645 200.206 112.664 199.907 112.703 199.61C112.742 199.314 112.804 199.034 112.889 198.771C112.973 198.504 113.081 198.256 113.211 198.028C113.344 197.8 113.502 197.605 113.685 197.442C113.87 197.276 114.083 197.146 114.324 197.052C114.565 196.957 114.835 196.91 115.135 196.91ZM118.885 198.131C119.113 198.131 119.298 198.113 119.441 198.077C119.585 198.038 119.695 197.978 119.773 197.896C119.852 197.815 119.904 197.711 119.93 197.584C119.959 197.454 119.974 197.296 119.974 197.11V196.998H120.804V204H119.944V198.858H118.582V198.131H118.885ZM123.274 202.208C123.408 202.543 123.611 202.818 123.885 203.033C124.158 203.245 124.521 203.351 124.974 203.351C125.221 203.351 125.438 203.318 125.623 203.253C125.812 203.185 125.97 203.092 126.097 202.975C126.224 202.857 126.318 202.722 126.38 202.569C126.445 202.416 126.478 202.25 126.478 202.071C126.478 201.677 126.323 201.373 126.014 201.158C125.708 200.94 125.312 200.831 124.827 200.831H124.524V200.079H124.798C125.065 200.079 125.296 200.043 125.491 199.972C125.687 199.897 125.849 199.799 125.979 199.679C126.11 199.558 126.206 199.423 126.268 199.273C126.333 199.124 126.365 198.972 126.365 198.819C126.365 198.673 126.334 198.53 126.272 198.39C126.214 198.25 126.128 198.124 126.014 198.014C125.903 197.903 125.76 197.817 125.584 197.755C125.411 197.693 125.216 197.662 124.998 197.662C124.611 197.662 124.282 197.761 124.012 197.96C123.742 198.159 123.543 198.406 123.416 198.702L122.698 198.351C122.897 197.892 123.201 197.537 123.611 197.286C124.021 197.035 124.484 196.91 124.998 196.91C125.324 196.91 125.623 196.957 125.896 197.052C126.17 197.143 126.406 197.275 126.604 197.447C126.806 197.617 126.963 197.817 127.073 198.048C127.187 198.276 127.244 198.523 127.244 198.79C127.244 199.005 127.21 199.2 127.142 199.376C127.076 199.552 126.985 199.71 126.868 199.85C126.754 199.99 126.616 200.107 126.453 200.201C126.294 200.292 126.124 200.356 125.945 200.392C126.154 200.424 126.346 200.491 126.521 200.592C126.697 200.689 126.849 200.812 126.976 200.958C127.103 201.104 127.202 201.274 127.273 201.466C127.348 201.655 127.386 201.853 127.386 202.062C127.386 202.394 127.321 202.687 127.19 202.94C127.06 203.194 126.883 203.408 126.658 203.58C126.437 203.753 126.181 203.883 125.892 203.971C125.602 204.055 125.296 204.098 124.974 204.098C124.401 204.098 123.888 203.966 123.436 203.702C122.983 203.435 122.662 203.054 122.474 202.56L123.274 202.208Z" fill="#6B7276"/>
<path d="M161.203 203.248H164.694V204H160.031V203.18C160.477 202.88 160.879 202.604 161.237 202.35C161.595 202.096 161.911 201.856 162.185 201.632C162.458 201.404 162.692 201.188 162.888 200.982C163.086 200.777 163.249 200.574 163.376 200.372C163.503 200.17 163.596 199.967 163.654 199.762C163.713 199.557 163.742 199.34 163.742 199.112C163.742 198.917 163.708 198.731 163.64 198.556C163.575 198.38 163.479 198.227 163.352 198.097C163.228 197.963 163.073 197.857 162.888 197.779C162.705 197.701 162.497 197.662 162.263 197.662C162.074 197.662 161.892 197.69 161.716 197.745C161.543 197.797 161.389 197.882 161.252 197.999C161.118 198.116 161.009 198.268 160.925 198.453C160.84 198.635 160.793 198.855 160.783 199.112L159.973 199.02C159.986 198.694 160.049 198.401 160.163 198.141C160.277 197.88 160.433 197.659 160.632 197.477C160.834 197.294 161.073 197.154 161.35 197.057C161.63 196.959 161.94 196.91 162.282 196.91C162.614 196.91 162.922 196.965 163.205 197.076C163.492 197.184 163.739 197.335 163.947 197.53C164.159 197.726 164.323 197.957 164.44 198.224C164.561 198.491 164.621 198.782 164.621 199.098C164.621 199.472 164.556 199.824 164.426 200.152C164.299 200.481 164.104 200.805 163.84 201.124C163.576 201.44 163.241 201.759 162.834 202.081C162.43 202.403 161.953 202.743 161.403 203.102L161.203 203.229V203.248ZM168.469 203.341C168.697 203.341 168.908 203.281 169.104 203.16C169.302 203.04 169.471 202.867 169.611 202.643C169.755 202.415 169.867 202.136 169.948 201.808C170.03 201.476 170.07 201.1 170.07 200.68V200.328C170.07 199.908 170.03 199.534 169.948 199.205C169.867 198.876 169.755 198.598 169.611 198.37C169.471 198.142 169.302 197.97 169.104 197.853C168.908 197.732 168.697 197.672 168.469 197.672C168.238 197.672 168.024 197.732 167.829 197.853C167.634 197.97 167.465 198.142 167.321 198.37C167.181 198.598 167.071 198.876 166.989 199.205C166.908 199.534 166.867 199.908 166.867 200.328V200.68C166.867 201.1 166.908 201.476 166.989 201.808C167.071 202.136 167.181 202.415 167.321 202.643C167.465 202.867 167.634 203.04 167.829 203.16C168.024 203.281 168.238 203.341 168.469 203.341ZM168.469 196.91C168.768 196.91 169.038 196.957 169.279 197.052C169.52 197.146 169.732 197.276 169.914 197.442C170.1 197.605 170.257 197.8 170.388 198.028C170.521 198.256 170.63 198.504 170.715 198.771C170.799 199.034 170.861 199.314 170.9 199.61C170.939 199.907 170.959 200.206 170.959 200.509C170.959 200.812 170.939 201.111 170.9 201.407C170.861 201.7 170.799 201.98 170.715 202.247C170.63 202.511 170.521 202.757 170.388 202.984C170.257 203.209 170.1 203.404 169.914 203.57C169.732 203.736 169.52 203.867 169.279 203.961C169.038 204.052 168.768 204.098 168.469 204.098C168.169 204.098 167.899 204.052 167.658 203.961C167.417 203.867 167.204 203.736 167.019 203.57C166.836 203.404 166.678 203.209 166.545 202.984C166.415 202.757 166.307 202.511 166.223 202.247C166.138 201.98 166.076 201.7 166.037 201.407C165.998 201.111 165.979 200.812 165.979 200.509C165.979 200.206 165.998 199.907 166.037 199.61C166.076 199.314 166.138 199.034 166.223 198.771C166.307 198.504 166.415 198.256 166.545 198.028C166.678 197.8 166.836 197.605 167.019 197.442C167.204 197.276 167.417 197.146 167.658 197.052C167.899 196.957 168.169 196.91 168.469 196.91ZM172.219 198.131C172.447 198.131 172.632 198.113 172.775 198.077C172.919 198.038 173.029 197.978 173.107 197.896C173.186 197.815 173.238 197.711 173.264 197.584C173.293 197.454 173.308 197.296 173.308 197.11V196.998H174.138V204H173.278V198.858H171.916V198.131H172.219ZM179.221 201.471V197.74L176.521 201.471H179.221ZM179.221 204V202.188H175.7V201.339L178.869 196.998H180.08V201.471H181.228V202.188H180.08V204H179.221Z" fill="#6B7276"/>
<path d="M212.913 203.248H216.404V204H211.741V203.18C212.187 202.88 212.589 202.604 212.947 202.35C213.305 202.096 213.621 201.856 213.895 201.632C214.168 201.404 214.402 201.188 214.598 200.982C214.796 200.777 214.959 200.574 215.086 200.372C215.213 200.17 215.306 199.967 215.364 199.762C215.423 199.557 215.452 199.34 215.452 199.112C215.452 198.917 215.418 198.731 215.35 198.556C215.285 198.38 215.188 198.227 215.062 198.097C214.938 197.963 214.783 197.857 214.598 197.779C214.415 197.701 214.207 197.662 213.973 197.662C213.784 197.662 213.602 197.69 213.426 197.745C213.253 197.797 213.099 197.882 212.962 197.999C212.828 198.116 212.719 198.268 212.635 198.453C212.55 198.635 212.503 198.855 212.493 199.112L211.683 199.02C211.696 198.694 211.759 198.401 211.873 198.141C211.987 197.88 212.143 197.659 212.342 197.477C212.544 197.294 212.783 197.154 213.06 197.057C213.34 196.959 213.65 196.91 213.992 196.91C214.324 196.91 214.632 196.965 214.915 197.076C215.201 197.184 215.449 197.335 215.657 197.53C215.869 197.726 216.033 197.957 216.15 198.224C216.271 198.491 216.331 198.782 216.331 199.098C216.331 199.472 216.266 199.824 216.136 200.152C216.009 200.481 215.813 200.805 215.55 201.124C215.286 201.44 214.951 201.759 214.544 202.081C214.14 202.403 213.663 202.743 213.113 203.102L212.913 203.229V203.248ZM220.179 203.341C220.407 203.341 220.618 203.281 220.813 203.16C221.012 203.04 221.181 202.867 221.321 202.643C221.465 202.415 221.577 202.136 221.658 201.808C221.74 201.476 221.78 201.1 221.78 200.68V200.328C221.78 199.908 221.74 199.534 221.658 199.205C221.577 198.876 221.465 198.598 221.321 198.37C221.181 198.142 221.012 197.97 220.813 197.853C220.618 197.732 220.407 197.672 220.179 197.672C219.948 197.672 219.734 197.732 219.539 197.853C219.344 197.97 219.174 198.142 219.031 198.37C218.891 198.598 218.781 198.876 218.699 199.205C218.618 199.534 218.577 199.908 218.577 200.328V200.68C218.577 201.1 218.618 201.476 218.699 201.808C218.781 202.136 218.891 202.415 219.031 202.643C219.174 202.867 219.344 203.04 219.539 203.16C219.734 203.281 219.948 203.341 220.179 203.341ZM220.179 196.91C220.478 196.91 220.748 196.957 220.989 197.052C221.23 197.146 221.442 197.276 221.624 197.442C221.81 197.605 221.967 197.8 222.098 198.028C222.231 198.256 222.34 198.504 222.425 198.771C222.509 199.034 222.571 199.314 222.61 199.61C222.649 199.907 222.669 200.206 222.669 200.509C222.669 200.812 222.649 201.111 222.61 201.407C222.571 201.7 222.509 201.98 222.425 202.247C222.34 202.511 222.231 202.757 222.098 202.984C221.967 203.209 221.81 203.404 221.624 203.57C221.442 203.736 221.23 203.867 220.989 203.961C220.748 204.052 220.478 204.098 220.179 204.098C219.879 204.098 219.609 204.052 219.368 203.961C219.127 203.867 218.914 203.736 218.729 203.57C218.546 203.404 218.388 203.209 218.255 202.984C218.125 202.757 218.017 202.511 217.933 202.247C217.848 201.98 217.786 201.7 217.747 201.407C217.708 201.111 217.688 200.812 217.688 200.509C217.688 200.206 217.708 199.907 217.747 199.61C217.786 199.314 217.848 199.034 217.933 198.771C218.017 198.504 218.125 198.256 218.255 198.028C218.388 197.8 218.546 197.605 218.729 197.442C218.914 197.276 219.127 197.146 219.368 197.052C219.609 196.957 219.879 196.91 220.179 196.91ZM223.929 198.131C224.157 198.131 224.342 198.113 224.485 198.077C224.629 198.038 224.739 197.978 224.817 197.896C224.896 197.815 224.948 197.711 224.974 197.584C225.003 197.454 225.018 197.296 225.018 197.11V196.998H225.848V204H224.988V198.858H223.626V198.131H223.929ZM227.742 200.44L228.108 196.998H232.107V197.75H228.802L228.592 199.742C228.781 199.56 229.007 199.423 229.271 199.332C229.534 199.238 229.804 199.19 230.081 199.19C230.413 199.19 230.719 199.252 230.999 199.376C231.282 199.496 231.526 199.664 231.731 199.879C231.94 200.094 232.101 200.348 232.215 200.641C232.332 200.934 232.391 201.249 232.391 201.588C232.391 201.965 232.329 202.309 232.205 202.618C232.085 202.927 231.914 203.193 231.692 203.414C231.471 203.632 231.207 203.801 230.901 203.922C230.595 204.039 230.258 204.098 229.891 204.098C229.601 204.098 229.326 204.065 229.065 204C228.808 203.932 228.576 203.831 228.367 203.697C228.159 203.561 227.98 203.393 227.83 203.194C227.684 202.993 227.579 202.758 227.518 202.491L228.372 202.311C228.408 202.451 228.468 202.584 228.553 202.711C228.637 202.835 228.745 202.945 228.875 203.043C229.005 203.137 229.155 203.212 229.324 203.268C229.493 203.323 229.682 203.351 229.891 203.351C230.141 203.351 230.366 203.308 230.564 203.224C230.763 203.139 230.931 203.022 231.067 202.872C231.204 202.719 231.308 202.538 231.38 202.33C231.455 202.122 231.492 201.896 231.492 201.651C231.492 201.397 231.455 201.166 231.38 200.958C231.308 200.75 231.202 200.571 231.062 200.421C230.926 200.268 230.758 200.151 230.56 200.069C230.361 199.985 230.135 199.942 229.881 199.942C229.76 199.942 229.637 199.957 229.51 199.986C229.386 200.016 229.266 200.056 229.148 200.108C229.035 200.16 228.927 200.224 228.826 200.299C228.725 200.374 228.639 200.457 228.567 200.548L227.742 200.44Z" fill="#6B7276"/>
<path d="M265.281 203.248H268.772V204H264.109V203.18C264.555 202.88 264.957 202.604 265.315 202.35C265.674 202.096 265.989 201.856 266.263 201.632C266.536 201.404 266.771 201.188 266.966 200.982C267.164 200.777 267.327 200.574 267.454 200.372C267.581 200.17 267.674 199.967 267.732 199.762C267.791 199.557 267.82 199.34 267.82 199.112C267.82 198.917 267.786 198.731 267.718 198.556C267.653 198.38 267.557 198.227 267.43 198.097C267.306 197.963 267.151 197.857 266.966 197.779C266.784 197.701 266.575 197.662 266.341 197.662C266.152 197.662 265.97 197.69 265.794 197.745C265.621 197.797 265.467 197.882 265.33 197.999C265.197 198.116 265.088 198.268 265.003 198.453C264.918 198.635 264.871 198.855 264.861 199.112L264.051 199.02C264.064 198.694 264.127 198.401 264.241 198.141C264.355 197.88 264.511 197.659 264.71 197.477C264.912 197.294 265.151 197.154 265.428 197.057C265.708 196.959 266.019 196.91 266.36 196.91C266.692 196.91 267 196.965 267.283 197.076C267.57 197.184 267.817 197.335 268.025 197.53C268.237 197.726 268.401 197.957 268.519 198.224C268.639 198.491 268.699 198.782 268.699 199.098C268.699 199.472 268.634 199.824 268.504 200.152C268.377 200.481 268.182 200.805 267.918 201.124C267.654 201.44 267.319 201.759 266.912 202.081C266.508 202.403 266.032 202.743 265.481 203.102L265.281 203.229V203.248ZM272.547 203.341C272.775 203.341 272.986 203.281 273.182 203.16C273.38 203.04 273.549 202.867 273.689 202.643C273.833 202.415 273.945 202.136 274.026 201.808C274.108 201.476 274.148 201.1 274.148 200.68V200.328C274.148 199.908 274.108 199.534 274.026 199.205C273.945 198.876 273.833 198.598 273.689 198.37C273.549 198.142 273.38 197.97 273.182 197.853C272.986 197.732 272.775 197.672 272.547 197.672C272.316 197.672 272.103 197.732 271.907 197.853C271.712 197.97 271.543 198.142 271.399 198.37C271.259 198.598 271.149 198.876 271.067 199.205C270.986 199.534 270.945 199.908 270.945 200.328V200.68C270.945 201.1 270.986 201.476 271.067 201.808C271.149 202.136 271.259 202.415 271.399 202.643C271.543 202.867 271.712 203.04 271.907 203.16C272.103 203.281 272.316 203.341 272.547 203.341ZM272.547 196.91C272.846 196.91 273.117 196.957 273.357 197.052C273.598 197.146 273.81 197.276 273.992 197.442C274.178 197.605 274.336 197.8 274.466 198.028C274.599 198.256 274.708 198.504 274.793 198.771C274.878 199.034 274.939 199.314 274.979 199.61C275.018 199.907 275.037 200.206 275.037 200.509C275.037 200.812 275.018 201.111 274.979 201.407C274.939 201.7 274.878 201.98 274.793 202.247C274.708 202.511 274.599 202.757 274.466 202.984C274.336 203.209 274.178 203.404 273.992 203.57C273.81 203.736 273.598 203.867 273.357 203.961C273.117 204.052 272.846 204.098 272.547 204.098C272.247 204.098 271.977 204.052 271.736 203.961C271.495 203.867 271.282 203.736 271.097 203.57C270.914 203.404 270.757 203.209 270.623 202.984C270.493 202.757 270.385 202.511 270.301 202.247C270.216 201.98 270.154 201.7 270.115 201.407C270.076 201.111 270.057 200.812 270.057 200.509C270.057 200.206 270.076 199.907 270.115 199.61C270.154 199.314 270.216 199.034 270.301 198.771C270.385 198.504 270.493 198.256 270.623 198.028C270.757 197.8 270.914 197.605 271.097 197.442C271.282 197.276 271.495 197.146 271.736 197.052C271.977 196.957 272.247 196.91 272.547 196.91ZM276.297 198.131C276.525 198.131 276.71 198.113 276.854 198.077C276.997 198.038 277.107 197.978 277.186 197.896C277.264 197.815 277.316 197.711 277.342 197.584C277.371 197.454 277.386 197.296 277.386 197.11V196.998H278.216V204H277.356V198.858H275.994V198.131H276.297ZM279.979 200.709C279.979 200.393 280 200.081 280.042 199.771C280.088 199.459 280.156 199.161 280.247 198.878C280.341 198.595 280.46 198.333 280.604 198.092C280.75 197.851 280.926 197.643 281.131 197.467C281.339 197.291 281.577 197.153 281.844 197.052C282.114 196.951 282.418 196.9 282.757 196.9C283.001 196.9 283.229 196.93 283.44 196.988C283.652 197.044 283.844 197.122 284.017 197.223C284.192 197.32 284.349 197.438 284.485 197.574C284.622 197.711 284.739 197.859 284.837 198.019L283.997 198.282C283.685 197.833 283.271 197.608 282.757 197.608C282.422 197.608 282.133 197.688 281.893 197.848C281.655 198.007 281.458 198.219 281.302 198.482C281.146 198.743 281.028 199.042 280.95 199.381C280.875 199.716 280.835 200.063 280.828 200.421H280.848C280.906 200.3 280.993 200.182 281.106 200.064C281.224 199.947 281.362 199.841 281.521 199.747C281.684 199.653 281.867 199.576 282.068 199.518C282.273 199.459 282.493 199.43 282.728 199.43C283.06 199.43 283.364 199.488 283.641 199.605C283.921 199.719 284.161 199.879 284.363 200.084C284.568 200.289 284.726 200.532 284.837 200.812C284.951 201.091 285.008 201.394 285.008 201.72C285.008 202.055 284.948 202.369 284.827 202.662C284.71 202.952 284.544 203.204 284.329 203.419C284.118 203.634 283.864 203.803 283.567 203.927C283.271 204.05 282.947 204.112 282.596 204.112C282.225 204.112 281.88 204.042 281.561 203.902C281.242 203.762 280.965 203.556 280.73 203.282C280.496 203.009 280.312 202.672 280.179 202.271C280.045 201.868 279.979 201.404 279.979 200.88V200.709ZM280.979 201.749C280.979 201.993 281.019 202.216 281.097 202.418C281.178 202.617 281.289 202.789 281.429 202.936C281.569 203.079 281.735 203.191 281.927 203.272C282.122 203.351 282.335 203.39 282.566 203.39C282.791 203.39 282.999 203.352 283.191 203.277C283.383 203.199 283.549 203.09 283.689 202.95C283.829 202.81 283.938 202.641 284.017 202.442C284.098 202.244 284.139 202.022 284.139 201.778C284.139 201.531 284.1 201.308 284.021 201.109C283.943 200.908 283.834 200.737 283.694 200.597C283.554 200.453 283.387 200.344 283.191 200.27C282.999 200.191 282.788 200.152 282.557 200.152C282.326 200.152 282.112 200.191 281.917 200.27C281.725 200.344 281.559 200.452 281.419 200.592C281.279 200.732 281.17 200.901 281.092 201.1C281.017 201.295 280.979 201.511 280.979 201.749Z" fill="#6B7276"/>
<path d="M317.226 203.248H320.717V204H316.054V203.18C316.5 202.88 316.902 202.604 317.26 202.35C317.618 202.096 317.934 201.856 318.207 201.632C318.48 201.404 318.715 201.188 318.91 200.982C319.109 200.777 319.271 200.574 319.398 200.372C319.525 200.17 319.618 199.967 319.677 199.762C319.735 199.557 319.765 199.34 319.765 199.112C319.765 198.917 319.73 198.731 319.662 198.556C319.597 198.38 319.501 198.227 319.374 198.097C319.25 197.963 319.096 197.857 318.91 197.779C318.728 197.701 318.52 197.662 318.285 197.662C318.096 197.662 317.914 197.69 317.738 197.745C317.566 197.797 317.411 197.882 317.274 197.999C317.141 198.116 317.032 198.268 316.947 198.453C316.863 198.635 316.815 198.855 316.806 199.112L315.995 199.02C316.008 198.694 316.072 198.401 316.186 198.141C316.299 197.88 316.456 197.659 316.654 197.477C316.856 197.294 317.095 197.154 317.372 197.057C317.652 196.959 317.963 196.91 318.305 196.91C318.637 196.91 318.944 196.965 319.228 197.076C319.514 197.184 319.761 197.335 319.97 197.53C320.181 197.726 320.346 197.957 320.463 198.224C320.583 198.491 320.644 198.782 320.644 199.098C320.644 199.472 320.578 199.824 320.448 200.152C320.321 200.481 320.126 200.805 319.862 201.124C319.599 201.44 319.263 201.759 318.856 202.081C318.453 202.403 317.976 202.743 317.426 203.102L317.226 203.229V203.248ZM324.491 203.341C324.719 203.341 324.931 203.281 325.126 203.16C325.325 203.04 325.494 202.867 325.634 202.643C325.777 202.415 325.889 202.136 325.971 201.808C326.052 201.476 326.093 201.1 326.093 200.68V200.328C326.093 199.908 326.052 199.534 325.971 199.205C325.889 198.876 325.777 198.598 325.634 198.37C325.494 198.142 325.325 197.97 325.126 197.853C324.931 197.732 324.719 197.672 324.491 197.672C324.26 197.672 324.047 197.732 323.852 197.853C323.656 197.97 323.487 198.142 323.344 198.37C323.204 198.598 323.093 198.876 323.012 199.205C322.93 199.534 322.89 199.908 322.89 200.328V200.68C322.89 201.1 322.93 201.476 323.012 201.808C323.093 202.136 323.204 202.415 323.344 202.643C323.487 202.867 323.656 203.04 323.852 203.16C324.047 203.281 324.26 203.341 324.491 203.341ZM324.491 196.91C324.791 196.91 325.061 196.957 325.302 197.052C325.543 197.146 325.754 197.276 325.937 197.442C326.122 197.605 326.28 197.8 326.41 198.028C326.544 198.256 326.653 198.504 326.737 198.771C326.822 199.034 326.884 199.314 326.923 199.61C326.962 199.907 326.981 200.206 326.981 200.509C326.981 200.812 326.962 201.111 326.923 201.407C326.884 201.7 326.822 201.98 326.737 202.247C326.653 202.511 326.544 202.757 326.41 202.984C326.28 203.209 326.122 203.404 325.937 203.57C325.754 203.736 325.543 203.867 325.302 203.961C325.061 204.052 324.791 204.098 324.491 204.098C324.192 204.098 323.922 204.052 323.681 203.961C323.44 203.867 323.227 203.736 323.041 203.57C322.859 203.404 322.701 203.209 322.567 202.984C322.437 202.757 322.33 202.511 322.245 202.247C322.16 201.98 322.099 201.7 322.06 201.407C322.021 201.111 322.001 200.812 322.001 200.509C322.001 200.206 322.021 199.907 322.06 199.61C322.099 199.314 322.16 199.034 322.245 198.771C322.33 198.504 322.437 198.256 322.567 198.028C322.701 197.8 322.859 197.605 323.041 197.442C323.227 197.276 323.44 197.146 323.681 197.052C323.922 196.957 324.192 196.91 324.491 196.91ZM328.241 198.131C328.469 198.131 328.655 198.113 328.798 198.077C328.941 198.038 329.052 197.978 329.13 197.896C329.208 197.815 329.26 197.711 329.286 197.584C329.315 197.454 329.33 197.296 329.33 197.11V196.998H330.16V204H329.301V198.858H327.938V198.131H328.241ZM335.404 197.779H331.693V196.998H336.283V197.779L333.681 204H332.724L335.404 197.779Z" fill="#6B7276"/>
<path d="M368.315 203.248H371.807V204H367.144V203.18C367.59 202.88 367.992 202.604 368.35 202.35C368.708 202.096 369.023 201.856 369.297 201.632C369.57 201.404 369.805 201.188 370 200.982C370.199 200.777 370.361 200.574 370.488 200.372C370.615 200.17 370.708 199.967 370.767 199.762C370.825 199.557 370.854 199.34 370.854 199.112C370.854 198.917 370.82 198.731 370.752 198.556C370.687 198.38 370.591 198.227 370.464 198.097C370.34 197.963 370.186 197.857 370 197.779C369.818 197.701 369.609 197.662 369.375 197.662C369.186 197.662 369.004 197.69 368.828 197.745C368.656 197.797 368.501 197.882 368.364 197.999C368.231 198.116 368.122 198.268 368.037 198.453C367.952 198.635 367.905 198.855 367.896 199.112L367.085 199.02C367.098 198.694 367.161 198.401 367.275 198.141C367.389 197.88 367.546 197.659 367.744 197.477C367.946 197.294 368.185 197.154 368.462 197.057C368.742 196.959 369.053 196.91 369.395 196.91C369.727 196.91 370.034 196.965 370.317 197.076C370.604 197.184 370.851 197.335 371.06 197.53C371.271 197.726 371.436 197.957 371.553 198.224C371.673 198.491 371.733 198.782 371.733 199.098C371.733 199.472 371.668 199.824 371.538 200.152C371.411 200.481 371.216 200.805 370.952 201.124C370.688 201.44 370.353 201.759 369.946 202.081C369.543 202.403 369.066 202.743 368.516 203.102L368.315 203.229V203.248ZM375.581 203.341C375.809 203.341 376.021 203.281 376.216 203.16C376.414 203.04 376.584 202.867 376.724 202.643C376.867 202.415 376.979 202.136 377.061 201.808C377.142 201.476 377.183 201.1 377.183 200.68V200.328C377.183 199.908 377.142 199.534 377.061 199.205C376.979 198.876 376.867 198.598 376.724 198.37C376.584 198.142 376.414 197.97 376.216 197.853C376.021 197.732 375.809 197.672 375.581 197.672C375.35 197.672 375.137 197.732 374.941 197.853C374.746 197.97 374.577 198.142 374.434 198.37C374.294 198.598 374.183 198.876 374.102 199.205C374.02 199.534 373.979 199.908 373.979 200.328V200.68C373.979 201.1 374.02 201.476 374.102 201.808C374.183 202.136 374.294 202.415 374.434 202.643C374.577 202.867 374.746 203.04 374.941 203.16C375.137 203.281 375.35 203.341 375.581 203.341ZM375.581 196.91C375.881 196.91 376.151 196.957 376.392 197.052C376.632 197.146 376.844 197.276 377.026 197.442C377.212 197.605 377.37 197.8 377.5 198.028C377.633 198.256 377.743 198.504 377.827 198.771C377.912 199.034 377.974 199.314 378.013 199.61C378.052 199.907 378.071 200.206 378.071 200.509C378.071 200.812 378.052 201.111 378.013 201.407C377.974 201.7 377.912 201.98 377.827 202.247C377.743 202.511 377.633 202.757 377.5 202.984C377.37 203.209 377.212 203.404 377.026 203.57C376.844 203.736 376.632 203.867 376.392 203.961C376.151 204.052 375.881 204.098 375.581 204.098C375.282 204.098 375.011 204.052 374.771 203.961C374.53 203.867 374.316 203.736 374.131 203.57C373.949 203.404 373.791 203.209 373.657 202.984C373.527 202.757 373.42 202.511 373.335 202.247C373.25 201.98 373.188 201.7 373.149 201.407C373.11 201.111 373.091 200.812 373.091 200.509C373.091 200.206 373.11 199.907 373.149 199.61C373.188 199.314 373.25 199.034 373.335 198.771C373.42 198.504 373.527 198.256 373.657 198.028C373.791 197.8 373.949 197.605 374.131 197.442C374.316 197.276 374.53 197.146 374.771 197.052C375.011 196.957 375.282 196.91 375.581 196.91ZM379.331 198.131C379.559 198.131 379.744 198.113 379.888 198.077C380.031 198.038 380.142 197.978 380.22 197.896C380.298 197.815 380.35 197.711 380.376 197.584C380.405 197.454 380.42 197.296 380.42 197.11V196.998H381.25V204H380.391V198.858H379.028V198.131H379.331ZM385.464 196.91C385.76 196.91 386.047 196.952 386.323 197.037C386.603 197.118 386.851 197.239 387.065 197.398C387.284 197.555 387.458 197.75 387.588 197.984C387.718 198.219 387.783 198.487 387.783 198.79C387.783 198.946 387.762 199.104 387.72 199.264C387.681 199.42 387.614 199.57 387.52 199.713C387.428 199.853 387.306 199.98 387.153 200.094C387 200.208 386.813 200.3 386.592 200.372C386.839 200.44 387.051 200.538 387.227 200.665C387.406 200.789 387.552 200.93 387.666 201.09C387.783 201.249 387.868 201.42 387.92 201.603C387.975 201.782 388.003 201.964 388.003 202.149C388.003 202.468 387.931 202.75 387.788 202.994C387.645 203.238 387.454 203.442 387.217 203.604C386.979 203.767 386.707 203.891 386.401 203.976C386.099 204.057 385.786 204.098 385.464 204.098C385.142 204.098 384.827 204.057 384.521 203.976C384.215 203.891 383.944 203.767 383.706 203.604C383.468 203.442 383.278 203.238 383.135 202.994C382.992 202.75 382.92 202.468 382.92 202.149C382.92 201.964 382.946 201.782 382.998 201.603C383.053 201.42 383.138 201.249 383.252 201.09C383.369 200.93 383.516 200.789 383.691 200.665C383.87 200.538 384.084 200.44 384.331 200.372C384.11 200.3 383.923 200.208 383.77 200.094C383.62 199.98 383.498 199.853 383.403 199.713C383.312 199.57 383.245 199.42 383.203 199.264C383.164 199.104 383.145 198.946 383.145 198.79C383.145 198.487 383.21 198.219 383.34 197.984C383.47 197.75 383.643 197.555 383.857 197.398C384.072 197.239 384.318 197.118 384.595 197.037C384.875 196.952 385.164 196.91 385.464 196.91ZM384.004 198.858C384.004 199.05 384.045 199.223 384.126 199.376C384.207 199.526 384.315 199.653 384.448 199.757C384.582 199.858 384.736 199.936 384.912 199.991C385.088 200.043 385.272 200.069 385.464 200.069C385.653 200.069 385.835 200.043 386.011 199.991C386.187 199.936 386.341 199.858 386.475 199.757C386.611 199.653 386.72 199.526 386.802 199.376C386.883 199.223 386.924 199.05 386.924 198.858C386.924 198.666 386.883 198.495 386.802 198.346C386.72 198.196 386.611 198.071 386.475 197.97C386.341 197.866 386.187 197.787 386.011 197.735C385.835 197.68 385.653 197.652 385.464 197.652C385.272 197.652 385.088 197.68 384.912 197.735C384.736 197.787 384.582 197.866 384.448 197.97C384.315 198.071 384.207 198.196 384.126 198.346C384.045 198.495 384.004 198.666 384.004 198.858ZM383.794 202.081C383.794 202.299 383.84 202.488 383.931 202.647C384.022 202.807 384.144 202.94 384.297 203.048C384.45 203.152 384.627 203.23 384.829 203.282C385.031 203.334 385.243 203.36 385.464 203.36C385.682 203.36 385.892 203.334 386.094 203.282C386.296 203.23 386.473 203.152 386.626 203.048C386.782 202.94 386.906 202.807 386.997 202.647C387.088 202.488 387.134 202.299 387.134 202.081C387.134 201.863 387.088 201.674 386.997 201.515C386.906 201.355 386.782 201.223 386.626 201.119C386.473 201.012 386.296 200.932 386.094 200.88C385.892 200.828 385.682 200.802 385.464 200.802C385.243 200.802 385.031 200.828 384.829 200.88C384.627 200.932 384.45 201.012 384.297 201.119C384.144 201.223 384.022 201.355 383.931 201.515C383.84 201.674 383.794 201.863 383.794 202.081Z" fill="#6B7276"/>
<path d="M420.286 203.248H423.777V204H419.114V203.18C419.56 202.88 419.962 202.604 420.32 202.35C420.678 202.096 420.994 201.856 421.268 201.632C421.541 201.404 421.775 201.188 421.971 200.982C422.169 200.777 422.332 200.574 422.459 200.372C422.586 200.17 422.679 199.967 422.737 199.762C422.796 199.557 422.825 199.34 422.825 199.112C422.825 198.917 422.791 198.731 422.723 198.556C422.658 198.38 422.562 198.227 422.435 198.097C422.311 197.963 422.156 197.857 421.971 197.779C421.788 197.701 421.58 197.662 421.346 197.662C421.157 197.662 420.975 197.69 420.799 197.745C420.626 197.797 420.472 197.882 420.335 197.999C420.201 198.116 420.092 198.268 420.008 198.453C419.923 198.635 419.876 198.855 419.866 199.112L419.056 199.02C419.069 198.694 419.132 198.401 419.246 198.141C419.36 197.88 419.516 197.659 419.715 197.477C419.917 197.294 420.156 197.154 420.433 197.057C420.713 196.959 421.023 196.91 421.365 196.91C421.697 196.91 422.005 196.965 422.288 197.076C422.575 197.184 422.822 197.335 423.03 197.53C423.242 197.726 423.406 197.957 423.523 198.224C423.644 198.491 423.704 198.782 423.704 199.098C423.704 199.472 423.639 199.824 423.509 200.152C423.382 200.481 423.187 200.805 422.923 201.124C422.659 201.44 422.324 201.759 421.917 202.081C421.513 202.403 421.036 202.743 420.486 203.102L420.286 203.229V203.248ZM427.552 203.341C427.78 203.341 427.991 203.281 428.187 203.16C428.385 203.04 428.554 202.867 428.694 202.643C428.838 202.415 428.95 202.136 429.031 201.808C429.113 201.476 429.153 201.1 429.153 200.68V200.328C429.153 199.908 429.113 199.534 429.031 199.205C428.95 198.876 428.838 198.598 428.694 198.37C428.554 198.142 428.385 197.97 428.187 197.853C427.991 197.732 427.78 197.672 427.552 197.672C427.321 197.672 427.107 197.732 426.912 197.853C426.717 197.97 426.548 198.142 426.404 198.37C426.264 198.598 426.154 198.876 426.072 199.205C425.991 199.534 425.95 199.908 425.95 200.328V200.68C425.95 201.1 425.991 201.476 426.072 201.808C426.154 202.136 426.264 202.415 426.404 202.643C426.548 202.867 426.717 203.04 426.912 203.16C427.107 203.281 427.321 203.341 427.552 203.341ZM427.552 196.91C427.851 196.91 428.121 196.957 428.362 197.052C428.603 197.146 428.815 197.276 428.997 197.442C429.183 197.605 429.34 197.8 429.471 198.028C429.604 198.256 429.713 198.504 429.798 198.771C429.882 199.034 429.944 199.314 429.983 199.61C430.022 199.907 430.042 200.206 430.042 200.509C430.042 200.812 430.022 201.111 429.983 201.407C429.944 201.7 429.882 201.98 429.798 202.247C429.713 202.511 429.604 202.757 429.471 202.984C429.34 203.209 429.183 203.404 428.997 203.57C428.815 203.736 428.603 203.867 428.362 203.961C428.121 204.052 427.851 204.098 427.552 204.098C427.252 204.098 426.982 204.052 426.741 203.961C426.5 203.867 426.287 203.736 426.102 203.57C425.919 203.404 425.761 203.209 425.628 202.984C425.498 202.757 425.39 202.511 425.306 202.247C425.221 201.98 425.159 201.7 425.12 201.407C425.081 201.111 425.062 200.812 425.062 200.509C425.062 200.206 425.081 199.907 425.12 199.61C425.159 199.314 425.221 199.034 425.306 198.771C425.39 198.504 425.498 198.256 425.628 198.028C425.761 197.8 425.919 197.605 426.102 197.442C426.287 197.276 426.5 197.146 426.741 197.052C426.982 196.957 427.252 196.91 427.552 196.91ZM431.302 198.131C431.53 198.131 431.715 198.113 431.858 198.077C432.002 198.038 432.112 197.978 432.19 197.896C432.269 197.815 432.321 197.711 432.347 197.584C432.376 197.454 432.391 197.296 432.391 197.11V196.998H433.221V204H432.361V198.858H430.999V198.131H431.302ZM439.944 200.299C439.944 200.615 439.922 200.929 439.876 201.241C439.834 201.554 439.765 201.852 439.671 202.135C439.58 202.415 439.461 202.677 439.314 202.921C439.168 203.162 438.991 203.37 438.782 203.546C438.577 203.722 438.34 203.86 438.069 203.961C437.802 204.062 437.5 204.112 437.161 204.112C436.917 204.112 436.689 204.083 436.478 204.024C436.269 203.969 436.077 203.891 435.901 203.79C435.726 203.689 435.569 203.57 435.433 203.434C435.296 203.297 435.179 203.149 435.081 202.989L435.921 202.73C436.084 202.955 436.266 203.123 436.468 203.233C436.67 203.344 436.901 203.399 437.161 203.399C437.386 203.399 437.588 203.364 437.767 203.292C437.949 203.217 438.11 203.116 438.25 202.989C438.393 202.859 438.515 202.706 438.616 202.53C438.72 202.354 438.807 202.162 438.875 201.954C438.943 201.746 438.995 201.526 439.031 201.295C439.067 201.064 439.088 200.829 439.095 200.592H439.075C439.013 200.712 438.924 200.831 438.807 200.948C438.693 201.065 438.554 201.171 438.392 201.266C438.232 201.357 438.05 201.432 437.845 201.49C437.643 201.549 437.425 201.578 437.19 201.578C436.858 201.578 436.552 201.521 436.272 201.407C435.996 201.29 435.757 201.131 435.555 200.929C435.353 200.724 435.195 200.481 435.081 200.201C434.97 199.921 434.915 199.617 434.915 199.288C434.915 198.953 434.974 198.64 435.091 198.351C435.211 198.061 435.377 197.809 435.589 197.594C435.8 197.379 436.054 197.21 436.351 197.086C436.647 196.962 436.971 196.9 437.322 196.9C437.693 196.9 438.038 196.97 438.357 197.11C438.676 197.25 438.953 197.457 439.188 197.73C439.422 198.004 439.606 198.342 439.739 198.746C439.876 199.146 439.944 199.607 439.944 200.128V200.299ZM438.943 199.259C438.943 199.018 438.903 198.797 438.821 198.595C438.743 198.393 438.632 198.22 438.489 198.077C438.349 197.931 438.182 197.818 437.986 197.74C437.794 197.659 437.583 197.618 437.352 197.618C437.127 197.618 436.919 197.657 436.727 197.735C436.535 197.81 436.368 197.918 436.229 198.058C436.092 198.198 435.983 198.367 435.901 198.565C435.823 198.764 435.784 198.985 435.784 199.229C435.784 199.477 435.823 199.701 435.901 199.903C435.979 200.105 436.089 200.278 436.229 200.421C436.368 200.561 436.535 200.67 436.727 200.748C436.919 200.823 437.13 200.86 437.361 200.86C437.596 200.86 437.809 200.823 438.001 200.748C438.196 200.67 438.362 200.561 438.499 200.421C438.639 200.281 438.748 200.113 438.826 199.918C438.904 199.719 438.943 199.5 438.943 199.259Z" fill="#6B7276"/>
<path d="M473.095 203.248H476.586V204H471.923V203.18C472.369 202.88 472.771 202.604 473.129 202.35C473.487 202.096 473.803 201.856 474.076 201.632C474.35 201.404 474.584 201.188 474.779 200.982C474.978 200.777 475.141 200.574 475.268 200.372C475.395 200.17 475.487 199.967 475.546 199.762C475.604 199.557 475.634 199.34 475.634 199.112C475.634 198.917 475.6 198.731 475.531 198.556C475.466 198.38 475.37 198.227 475.243 198.097C475.119 197.963 474.965 197.857 474.779 197.779C474.597 197.701 474.389 197.662 474.154 197.662C473.965 197.662 473.783 197.69 473.607 197.745C473.435 197.797 473.28 197.882 473.144 197.999C473.01 198.116 472.901 198.268 472.816 198.453C472.732 198.635 472.685 198.855 472.675 199.112L471.864 199.02C471.877 198.694 471.941 198.401 472.055 198.141C472.169 197.88 472.325 197.659 472.523 197.477C472.725 197.294 472.965 197.154 473.241 197.057C473.521 196.959 473.832 196.91 474.174 196.91C474.506 196.91 474.813 196.965 475.097 197.076C475.383 197.184 475.631 197.335 475.839 197.53C476.05 197.726 476.215 197.957 476.332 198.224C476.452 198.491 476.513 198.782 476.513 199.098C476.513 199.472 476.448 199.824 476.317 200.152C476.19 200.481 475.995 200.805 475.731 201.124C475.468 201.44 475.132 201.759 474.726 202.081C474.322 202.403 473.845 202.743 473.295 203.102L473.095 203.229V203.248ZM480.36 203.341C480.588 203.341 480.8 203.281 480.995 203.16C481.194 203.04 481.363 202.867 481.503 202.643C481.646 202.415 481.758 202.136 481.84 201.808C481.921 201.476 481.962 201.1 481.962 200.68V200.328C481.962 199.908 481.921 199.534 481.84 199.205C481.758 198.876 481.646 198.598 481.503 198.37C481.363 198.142 481.194 197.97 480.995 197.853C480.8 197.732 480.588 197.672 480.36 197.672C480.129 197.672 479.916 197.732 479.721 197.853C479.525 197.97 479.356 198.142 479.213 198.37C479.073 198.598 478.962 198.876 478.881 199.205C478.799 199.534 478.759 199.908 478.759 200.328V200.68C478.759 201.1 478.799 201.476 478.881 201.808C478.962 202.136 479.073 202.415 479.213 202.643C479.356 202.867 479.525 203.04 479.721 203.16C479.916 203.281 480.129 203.341 480.36 203.341ZM480.36 196.91C480.66 196.91 480.93 196.957 481.171 197.052C481.412 197.146 481.623 197.276 481.806 197.442C481.991 197.605 482.149 197.8 482.279 198.028C482.413 198.256 482.522 198.504 482.606 198.771C482.691 199.034 482.753 199.314 482.792 199.61C482.831 199.907 482.851 200.206 482.851 200.509C482.851 200.812 482.831 201.111 482.792 201.407C482.753 201.7 482.691 201.98 482.606 202.247C482.522 202.511 482.413 202.757 482.279 202.984C482.149 203.209 481.991 203.404 481.806 203.57C481.623 203.736 481.412 203.867 481.171 203.961C480.93 204.052 480.66 204.098 480.36 204.098C480.061 204.098 479.791 204.052 479.55 203.961C479.309 203.867 479.096 203.736 478.91 203.57C478.728 203.404 478.57 203.209 478.437 202.984C478.306 202.757 478.199 202.511 478.114 202.247C478.03 201.98 477.968 201.7 477.929 201.407C477.89 201.111 477.87 200.812 477.87 200.509C477.87 200.206 477.89 199.907 477.929 199.61C477.968 199.314 478.03 199.034 478.114 198.771C478.199 198.504 478.306 198.256 478.437 198.028C478.57 197.8 478.728 197.605 478.91 197.442C479.096 197.276 479.309 197.146 479.55 197.052C479.791 196.957 480.061 196.91 480.36 196.91ZM485.331 203.248H488.822V204H484.159V203.18C484.605 202.88 485.007 202.604 485.365 202.35C485.723 202.096 486.039 201.856 486.312 201.632C486.586 201.404 486.82 201.188 487.016 200.982C487.214 200.777 487.377 200.574 487.504 200.372C487.631 200.17 487.724 199.967 487.782 199.762C487.841 199.557 487.87 199.34 487.87 199.112C487.87 198.917 487.836 198.731 487.768 198.556C487.702 198.38 487.606 198.227 487.479 198.097C487.356 197.963 487.201 197.857 487.016 197.779C486.833 197.701 486.625 197.662 486.391 197.662C486.202 197.662 486.02 197.69 485.844 197.745C485.671 197.797 485.517 197.882 485.38 197.999C485.246 198.116 485.137 198.268 485.053 198.453C484.968 198.635 484.921 198.855 484.911 199.112L484.101 199.02C484.114 198.694 484.177 198.401 484.291 198.141C484.405 197.88 484.561 197.659 484.76 197.477C484.962 197.294 485.201 197.154 485.478 197.057C485.757 196.959 486.068 196.91 486.41 196.91C486.742 196.91 487.05 196.965 487.333 197.076C487.619 197.184 487.867 197.335 488.075 197.53C488.287 197.726 488.451 197.957 488.568 198.224C488.689 198.491 488.749 198.782 488.749 199.098C488.749 199.472 488.684 199.824 488.554 200.152C488.427 200.481 488.231 200.805 487.968 201.124C487.704 201.44 487.369 201.759 486.962 202.081C486.558 202.403 486.081 202.743 485.531 203.102L485.331 203.229V203.248ZM492.597 203.341C492.825 203.341 493.036 203.281 493.231 203.16C493.43 203.04 493.599 202.867 493.739 202.643C493.882 202.415 493.995 202.136 494.076 201.808C494.158 201.476 494.198 201.1 494.198 200.68V200.328C494.198 199.908 494.158 199.534 494.076 199.205C493.995 198.876 493.882 198.598 493.739 198.37C493.599 198.142 493.43 197.97 493.231 197.853C493.036 197.732 492.825 197.672 492.597 197.672C492.366 197.672 492.152 197.732 491.957 197.853C491.762 197.97 491.592 198.142 491.449 198.37C491.309 198.598 491.199 198.876 491.117 199.205C491.036 199.534 490.995 199.908 490.995 200.328V200.68C490.995 201.1 491.036 201.476 491.117 201.808C491.199 202.136 491.309 202.415 491.449 202.643C491.592 202.867 491.762 203.04 491.957 203.16C492.152 203.281 492.366 203.341 492.597 203.341ZM492.597 196.91C492.896 196.91 493.166 196.957 493.407 197.052C493.648 197.146 493.86 197.276 494.042 197.442C494.228 197.605 494.385 197.8 494.516 198.028C494.649 198.256 494.758 198.504 494.843 198.771C494.927 199.034 494.989 199.314 495.028 199.61C495.067 199.907 495.087 200.206 495.087 200.509C495.087 200.812 495.067 201.111 495.028 201.407C494.989 201.7 494.927 201.98 494.843 202.247C494.758 202.511 494.649 202.757 494.516 202.984C494.385 203.209 494.228 203.404 494.042 203.57C493.86 203.736 493.648 203.867 493.407 203.961C493.166 204.052 492.896 204.098 492.597 204.098C492.297 204.098 492.027 204.052 491.786 203.961C491.545 203.867 491.332 203.736 491.146 203.57C490.964 203.404 490.806 203.209 490.673 202.984C490.543 202.757 490.435 202.511 490.351 202.247C490.266 201.98 490.204 201.7 490.165 201.407C490.126 201.111 490.106 200.812 490.106 200.509C490.106 200.206 490.126 199.907 490.165 199.61C490.204 199.314 490.266 199.034 490.351 198.771C490.435 198.504 490.543 198.256 490.673 198.028C490.806 197.8 490.964 197.605 491.146 197.442C491.332 197.276 491.545 197.146 491.786 197.052C492.027 196.957 492.297 196.91 492.597 196.91Z" fill="#6B7276"/>
<path d="M527.889 203.248H531.38V204H526.717V203.18C527.163 202.88 527.565 202.604 527.923 202.35C528.281 202.096 528.597 201.856 528.87 201.632C529.144 201.404 529.378 201.188 529.573 200.982C529.772 200.777 529.935 200.574 530.062 200.372C530.188 200.17 530.281 199.967 530.34 199.762C530.398 199.557 530.428 199.34 530.428 199.112C530.428 198.917 530.394 198.731 530.325 198.556C530.26 198.38 530.164 198.227 530.037 198.097C529.913 197.963 529.759 197.857 529.573 197.779C529.391 197.701 529.183 197.662 528.948 197.662C528.759 197.662 528.577 197.69 528.401 197.745C528.229 197.797 528.074 197.882 527.938 197.999C527.804 198.116 527.695 198.268 527.61 198.453C527.526 198.635 527.479 198.855 527.469 199.112L526.658 199.02C526.671 198.694 526.735 198.401 526.849 198.141C526.963 197.88 527.119 197.659 527.317 197.477C527.519 197.294 527.758 197.154 528.035 197.057C528.315 196.959 528.626 196.91 528.968 196.91C529.3 196.91 529.607 196.965 529.891 197.076C530.177 197.184 530.424 197.335 530.633 197.53C530.844 197.726 531.009 197.957 531.126 198.224C531.246 198.491 531.307 198.782 531.307 199.098C531.307 199.472 531.242 199.824 531.111 200.152C530.984 200.481 530.789 200.805 530.525 201.124C530.262 201.44 529.926 201.759 529.52 202.081C529.116 202.403 528.639 202.743 528.089 203.102L527.889 203.229V203.248ZM535.154 203.341C535.382 203.341 535.594 203.281 535.789 203.16C535.988 203.04 536.157 202.867 536.297 202.643C536.44 202.415 536.552 202.136 536.634 201.808C536.715 201.476 536.756 201.1 536.756 200.68V200.328C536.756 199.908 536.715 199.534 536.634 199.205C536.552 198.876 536.44 198.598 536.297 198.37C536.157 198.142 535.988 197.97 535.789 197.853C535.594 197.732 535.382 197.672 535.154 197.672C534.923 197.672 534.71 197.732 534.515 197.853C534.319 197.97 534.15 198.142 534.007 198.37C533.867 198.598 533.756 198.876 533.675 199.205C533.593 199.534 533.553 199.908 533.553 200.328V200.68C533.553 201.1 533.593 201.476 533.675 201.808C533.756 202.136 533.867 202.415 534.007 202.643C534.15 202.867 534.319 203.04 534.515 203.16C534.71 203.281 534.923 203.341 535.154 203.341ZM535.154 196.91C535.454 196.91 535.724 196.957 535.965 197.052C536.206 197.146 536.417 197.276 536.6 197.442C536.785 197.605 536.943 197.8 537.073 198.028C537.207 198.256 537.316 198.504 537.4 198.771C537.485 199.034 537.547 199.314 537.586 199.61C537.625 199.907 537.645 200.206 537.645 200.509C537.645 200.812 537.625 201.111 537.586 201.407C537.547 201.7 537.485 201.98 537.4 202.247C537.316 202.511 537.207 202.757 537.073 202.984C536.943 203.209 536.785 203.404 536.6 203.57C536.417 203.736 536.206 203.867 535.965 203.961C535.724 204.052 535.454 204.098 535.154 204.098C534.855 204.098 534.585 204.052 534.344 203.961C534.103 203.867 533.89 203.736 533.704 203.57C533.522 203.404 533.364 203.209 533.23 202.984C533.1 202.757 532.993 202.511 532.908 202.247C532.824 201.98 532.762 201.7 532.723 201.407C532.684 201.111 532.664 200.812 532.664 200.509C532.664 200.206 532.684 199.907 532.723 199.61C532.762 199.314 532.824 199.034 532.908 198.771C532.993 198.504 533.1 198.256 533.23 198.028C533.364 197.8 533.522 197.605 533.704 197.442C533.89 197.276 534.103 197.146 534.344 197.052C534.585 196.957 534.855 196.91 535.154 196.91ZM540.125 203.248H543.616V204H538.953V203.18C539.399 202.88 539.801 202.604 540.159 202.35C540.517 202.096 540.833 201.856 541.106 201.632C541.38 201.404 541.614 201.188 541.81 200.982C542.008 200.777 542.171 200.574 542.298 200.372C542.425 200.17 542.518 199.967 542.576 199.762C542.635 199.557 542.664 199.34 542.664 199.112C542.664 198.917 542.63 198.731 542.562 198.556C542.496 198.38 542.4 198.227 542.273 198.097C542.15 197.963 541.995 197.857 541.81 197.779C541.627 197.701 541.419 197.662 541.185 197.662C540.996 197.662 540.813 197.69 540.638 197.745C540.465 197.797 540.311 197.882 540.174 197.999C540.04 198.116 539.931 198.268 539.847 198.453C539.762 198.635 539.715 198.855 539.705 199.112L538.895 199.02C538.908 198.694 538.971 198.401 539.085 198.141C539.199 197.88 539.355 197.659 539.554 197.477C539.756 197.294 539.995 197.154 540.271 197.057C540.551 196.959 540.862 196.91 541.204 196.91C541.536 196.91 541.844 196.965 542.127 197.076C542.413 197.184 542.661 197.335 542.869 197.53C543.081 197.726 543.245 197.957 543.362 198.224C543.483 198.491 543.543 198.782 543.543 199.098C543.543 199.472 543.478 199.824 543.348 200.152C543.221 200.481 543.025 200.805 542.762 201.124C542.498 201.44 542.163 201.759 541.756 202.081C541.352 202.403 540.875 202.743 540.325 203.102L540.125 203.229V203.248ZM544.861 198.131C545.089 198.131 545.275 198.113 545.418 198.077C545.561 198.038 545.672 197.978 545.75 197.896C545.828 197.815 545.88 197.711 545.906 197.584C545.936 197.454 545.95 197.296 545.95 197.11V196.998H546.78V204H545.921V198.858H544.559V198.131H544.861Z" fill="#6B7276"/>
</svg>
